<svg xmlns="http://www.w3.org/2000/svg" xmlns:xlink="http://www.w3.org/1999/xlink" width="500" zoomAndPan="magnify" viewBox="0 0 375 374.999991" height="500" preserveAspectRatio="xMidYMid meet" version="1.0"><defs><clipPath id="5008b4e196"><path d="M 39.042969 61.3125 L 214 61.3125 L 214 314.0625 L 39.042969 314.0625 Z M 39.042969 61.3125 " clip-rule="nonzero"/></clipPath></defs><path fill="#040606" d="M 265.3125 121.132812 C 260.964844 115.191406 252.503906 113.632812 246.253906 118.015625 C 240.324219 122.398438 238.742188 130.847656 243.117188 137.101562 C 253.765625 151.804688 259.382812 169.335938 259.382812 187.8125 C 259.382812 206.265625 253.765625 223.796875 243.117188 238.527344 C 238.742188 244.464844 240.007812 253.230469 246.253906 257.613281 C 248.757812 259.484375 251.554688 260.121094 254.058594 260.121094 C 258.144531 260.121094 262.519531 258.246094 264.996094 254.46875 C 279.074219 235.066406 286.585938 211.917969 286.585938 187.8125 C 286.875 163.710938 279.390625 140.851562 265.3125 121.132812 " fill-opacity="1" fill-rule="nonzero"/><path fill="#040606" d="M 300 85.46875 C 295.308594 79.5 286.875 78.578125 280.945312 83.277344 C 275.011719 87.949219 274.089844 96.421875 278.757812 102.363281 C 298.445312 126.78125 308.753906 156.1875 308.753906 187.496094 C 308.753906 218.804688 298.445312 248.214844 278.757812 272.632812 C 274.089844 278.574219 275.011719 287.046875 280.945312 291.71875 C 283.449219 293.59375 286.558594 294.859375 289.378906 294.859375 C 293.464844 294.859375 297.207031 292.984375 300 289.84375 C 323.144531 261.042969 335.957031 224.746094 335.957031 187.496094 C 335.957031 150.25 323.144531 114.558594 300 85.46875 " fill-opacity="1" fill-rule="nonzero"/><g clip-path="url(#5008b4e196)"><path fill="#040606" d="M 207.824219 62.289062 C 204.371094 60.730469 200.628906 61.046875 197.488281 63.238281 L 103.730469 134.277344 L 48.746094 134.277344 C 43.417969 134.277344 39.042969 138.660156 39.042969 143.992188 L 39.042969 231.636719 C 39.042969 236.941406 43.417969 241.324219 48.746094 241.324219 L 103.730469 241.324219 L 197.804688 312.390625 C 199.386719 313.628906 201.574219 314.261719 203.738281 314.261719 C 205.320312 314.261719 206.558594 313.945312 208.113281 313.3125 C 211.566406 311.753906 213.4375 308.324219 213.4375 304.574219 L 213.4375 71.054688 C 213.4375 67.304688 211.25 63.847656 207.824219 62.289062 " fill-opacity="1" fill-rule="nonzero"/></g></svg>