<svg xmlns="http://www.w3.org/2000/svg" xmlns:xlink="http://www.w3.org/1999/xlink" width="500" zoomAndPan="magnify" viewBox="0 0 375 374.999991" height="500" preserveAspectRatio="xMidYMid meet" version="1.0"><defs><clipPath id="73e56dddf6"><path d="M 37.652344 84.484375 L 337.335938 84.484375 L 337.335938 292.3125 L 37.652344 292.3125 Z M 37.652344 84.484375 " clip-rule="nonzero"/></clipPath></defs><path fill="#000000" d="M 63.039062 155.515625 L 63.039062 221.277344 C 63.039062 229 69.285156 235.257812 76.992188 235.257812 L 125.289062 235.257812 C 128.335938 235.257812 131.238281 236.5625 133.265625 238.84375 L 168.890625 278.925781 C 175.914062 286.324219 188.355469 281.34375 188.355469 271.136719 L 188.355469 215.625 L 76.730469 141.566406 C 69.148438 141.710938 63.039062 147.886719 63.039062 155.515625 " fill-opacity="1" fill-rule="nonzero"/><path fill="#000000" d="M 188.355469 105.664062 C 188.355469 95.453125 175.914062 90.472656 168.890625 97.871094 L 140.078125 130.289062 L 188.355469 162.320312 L 188.355469 105.664062 " fill-opacity="1" fill-rule="nonzero"/><path fill="#000000" d="M 241.382812 188.394531 C 241.382812 172.175781 233.058594 157.5625 219.121094 149.304688 C 212.792969 145.550781 204.636719 147.652344 200.890625 153.992188 C 197.148438 160.328125 199.246094 168.507812 205.570312 172.25 C 207.945312 173.660156 209.886719 175.484375 211.378906 177.59375 L 240.582031 196.964844 C 241.101562 194.179688 241.382812 191.316406 241.382812 188.394531 " fill-opacity="1" fill-rule="nonzero"/><path fill="#000000" d="M 277.40625 188.394531 C 277.40625 158.125 261.878906 130.855469 235.871094 115.449219 C 229.542969 111.695312 221.378906 113.800781 217.640625 120.136719 C 213.898438 126.476562 215.996094 134.652344 222.320312 138.398438 C 240.148438 148.957031 250.789062 167.648438 250.789062 188.394531 C 250.789062 193.269531 250.183594 198.019531 249.050781 202.585938 L 272.160156 217.917969 C 275.566406 208.652344 277.40625 198.707031 277.40625 188.394531 " fill-opacity="1" fill-rule="nonzero"/><path fill="#000000" d="M 222.320312 238.402344 C 215.992188 242.144531 213.898438 250.320312 217.640625 256.664062 C 220.125 260.867188 224.558594 263.210938 229.109375 263.210938 C 231.410156 263.210938 233.746094 262.609375 235.871094 261.347656 C 239.566406 259.15625 243.027344 256.703125 246.289062 254.058594 L 222.507812 238.28125 C 222.445312 238.320312 222.382812 238.363281 222.320312 238.402344 " fill-opacity="1" fill-rule="nonzero"/><path fill="#000000" d="M 240.554688 267.046875 C 234.226562 270.792969 232.128906 278.96875 235.871094 285.308594 C 238.359375 289.515625 242.789062 291.859375 247.339844 291.859375 C 249.640625 291.859375 251.976562 291.257812 254.101562 289.996094 C 262.046875 285.289062 269.246094 279.746094 275.710938 273.578125 L 252.773438 258.359375 C 248.972656 261.53125 244.917969 264.460938 240.554688 267.046875 " fill-opacity="1" fill-rule="nonzero"/><path fill="#000000" d="M 311.949219 188.402344 C 311.949219 146.242188 290.324219 108.261719 254.101562 86.800781 C 247.777344 83.046875 239.617188 85.152344 235.871094 91.488281 C 232.128906 97.828125 234.226562 106.003906 240.554688 109.75 C 268.59375 126.363281 285.332031 155.765625 285.332031 188.402344 C 285.332031 200.316406 283.078125 211.785156 278.878906 222.375 L 301.441406 237.34375 C 308.246094 222.296875 311.949219 205.714844 311.949219 188.402344 " fill-opacity="1" fill-rule="nonzero"/><g clip-path="url(#73e56dddf6)"><path fill="#000000" d="M 331.375 267.863281 L 58.308594 86.699219 C 56.046875 85.203125 53.5 84.484375 50.976562 84.484375 C 46.660156 84.484375 42.425781 86.585938 39.863281 90.457031 C 35.804688 96.59375 37.484375 104.867188 43.613281 108.933594 L 316.679688 290.097656 C 318.9375 291.59375 321.492188 292.3125 324.011719 292.3125 C 328.328125 292.3125 332.5625 290.214844 335.121094 286.339844 C 339.179688 280.199219 337.503906 271.925781 331.375 267.863281 " fill-opacity="1" fill-rule="nonzero"/></g></svg>